<svg fill="none" xmlns="http://www.w3.org/2000/svg"><path d="M17.179 40.003h2.643c1.453 0 2.642-1.2 2.642-2.667h-7.928c0 1.467 1.19 2.667 2.643 2.667ZM18.5 5.333c.793 0 1.321-.533 1.321-1.333V1.333C19.821.533 19.293 0 18.5 0c-.793 0-1.322.533-1.322 1.333V4c0 .8.529 1.333 1.322 1.333ZM3.964 17.332H1.321C.53 17.332 0 17.865 0 18.665 0 19.465.529 20 1.321 20h2.643c.793 0 1.322-.534 1.322-1.334s-.529-1.333-1.322-1.333ZM35.679 17.336h-2.643c-.793 0-1.322.533-1.322 1.333 0 .8.529 1.334 1.322 1.334h2.643c.792 0 1.321-.534 1.321-1.334s-.529-1.333-1.321-1.333ZM32.507 5.869c-.528-.534-1.321-.534-1.85 0l-1.85 1.866a1.297 1.297 0 0 0 0 1.867c.265.267.66.4.925.4s.66-.133.925-.4l1.85-1.867a1.297 1.297 0 0 0 0-1.866ZM8.193 9.602a1.297 1.297 0 0 0 0-1.867L6.343 5.87c-.529-.534-1.321-.534-1.85 0a1.297 1.297 0 0 0 0 1.866l1.85 1.867c.264.267.66.4.925.4.264 0 .66-.133.925-.4ZM18.5 6.664c-6.607 0-11.893 5.333-11.893 12 0 4.133 2.115 7.867 5.286 10v2c0 .8.528 1.333 1.321 1.333h10.572c.793 0 1.321-.533 1.321-1.333v-2c3.172-2.133 5.286-5.867 5.286-10 0-6.667-5.286-12-11.893-12Zm5.154 19.733-1.19.8V29.331h-7.928V27.197l-1.19-.8c-2.51-1.733-4.096-4.666-4.096-7.733 0-5.2 4.097-9.333 9.25-9.333 5.154 0 9.25 4.133 9.25 9.333 0 3.067-1.586 6-4.096 7.733ZM23.786 33.336H13.214c-.793 0-1.321.533-1.321 1.333 0 .8.528 1.334 1.321 1.334h10.572c.793 0 1.321-.534 1.321-1.334s-.528-1.333-1.321-1.333Z" fill="#F5A623"/><path d="m18.5 13.867-1.586 3.2-3.436.534L15.99 20l-.528 3.466 3.039-1.6 3.04 1.6-.53-3.466 2.511-2.4-3.435-.534-1.586-3.2Z" fill="#F5A623"/></svg>