<svg viewBox="0 0 40 40" fill="none" xmlns="http://www.w3.org/2000/svg">
<path d="M20 23.333C19.0796 23.333 18.3334 22.5868 18.3334 21.6663V16.6663C18.3334 15.7458 19.0796 14.9996 20 14.9996C20.9205 14.9996 21.6667 15.7458 21.6667 16.6663V21.6663C21.6667 22.5868 20.9205 23.333 20 23.333Z" fill="#F5A623"/>
<path d="M17.5 27.4996C17.5 26.1189 18.6193 24.9996 20 24.9996C21.3808 24.9996 22.5 26.1189 22.5 27.4996C22.5 28.8803 21.3808 29.9996 20 29.9996C18.6193 29.9996 17.5 28.8803 17.5 27.4996Z" fill="#F5A623"/>
<path d="M17.0503 5.35897C18.3 2.98452 21.7 2.9845 22.9498 5.35897L36.8558 31.7805C38.0241 34.0002 36.4145 36.6663 33.9061 36.6663H6.09398C3.58561 36.6663 1.97599 34.0002 3.14425 31.7805L17.0503 5.35897ZM33.9061 33.333L20 6.91146L6.09398 33.333L33.9061 33.333Z" fill="#F5A623"/>
</svg>
